<svg width="106" height="30" viewBox="0 0 106 30" fill="none" xmlns="http://www.w3.org/2000/svg">
<path d="M5.43492 0.105035C3.27355 1.00976 0.897484 3.5657 0.147044 6.77397C-0.803329 10.839 3.15162 12.5579 3.476 11.9943C3.8578 11.332 2.76732 11.1081 2.54286 8.99897C2.25275 6.27487 3.51918 3.23101 5.11302 1.89545C5.40928 1.64732 5.39519 1.99268 5.39519 2.63149C5.39519 3.77384 5.33207 14.0288 5.33207 16.169C5.33207 19.0649 5.21246 19.9794 4.99763 20.8831C4.77996 21.7988 4.43003 22.4176 4.69519 22.6559C4.99144 22.9225 6.25634 22.2884 6.9886 21.2664C7.8667 20.0406 8.17407 18.5686 8.22926 16.9699C8.29591 15.0428 8.29307 11.9849 8.29591 10.2407C8.29858 8.64105 8.32286 3.95679 8.26787 1.1408C8.25439 0.450088 6.33882 -0.274565 5.43482 0.104195L5.43492 0.105035ZM82.1851 13.658C82.1154 15.1635 81.7822 16.3403 81.3686 17.1704C80.5678 18.7773 78.9063 19.2763 78.2008 16.9662C77.8164 15.707 77.7984 13.6041 78.0748 11.8469C78.3562 10.0568 79.1418 8.70491 80.4427 8.82683C81.7258 8.94735 82.3264 10.6007 82.1851 13.6579V13.658ZM60.5537 22.9988C60.5363 25.5003 60.1426 27.6937 59.2983 28.3307C58.1009 29.234 56.4914 28.5564 56.8247 26.731C57.1196 25.1157 58.5141 23.466 60.5571 21.4504C60.5571 21.4504 60.5614 21.9101 60.5538 22.9988H60.5537ZM60.2267 13.6434C60.1535 15.0147 59.798 16.3922 59.4101 17.1706C58.6096 18.7775 56.9359 19.2798 56.2424 16.9664C55.7682 15.3858 55.8817 13.3401 56.1164 12.0511C56.4208 10.3787 57.1588 8.82719 58.4843 8.82719C59.7729 8.82719 60.4083 10.241 60.2267 13.6435V13.6434ZM47.6956 13.6224C47.617 15.0747 47.3337 16.2888 46.879 17.1706C46.0564 18.7664 44.429 19.2725 43.7113 16.9664C43.1939 15.3036 43.37 13.0362 43.5853 11.8113C43.9047 9.99373 44.7045 8.70509 45.9532 8.82719C47.2358 8.9525 47.8593 10.6009 47.6956 13.6225V13.6224ZM105.123 15.3188C104.809 15.3188 104.666 15.642 104.548 16.186C104.137 18.0775 103.706 18.5046 103.149 18.5046C102.527 18.5046 101.969 17.568 101.825 15.6931C101.712 14.2188 101.73 11.5046 101.875 8.80463C101.904 8.2499 101.751 7.70103 100.263 7.16051C99.623 6.92802 98.6923 6.58569 98.229 7.70423C96.9197 10.8643 96.4074 13.3732 96.2869 14.3924C96.2807 14.4451 96.216 14.4559 96.2046 14.3326C96.1279 13.5164 95.9562 12.033 95.9348 8.91645C95.9307 8.30838 95.8019 7.79079 95.1307 7.36705C94.6952 7.09209 93.3728 6.60578 92.8967 7.18433C92.4841 7.65749 92.0063 8.93083 91.5099 10.4402C91.1064 11.667 90.8254 12.4969 90.8254 12.4969C90.8254 12.4969 90.8307 9.18679 90.8355 7.93121C90.8377 7.45753 90.5128 7.29969 90.4148 7.27107C89.9738 7.14309 89.105 6.92927 88.7362 6.92927C88.2812 6.92927 88.1697 7.18362 88.1697 7.55422C88.1697 7.60274 88.0979 11.9123 88.0979 14.9258C88.0979 15.0567 88.0979 15.1995 88.0993 15.3512C87.8476 16.7362 87.0314 18.6163 86.1437 18.6163C85.255 18.6163 84.8357 17.8303 84.8357 14.2378C84.8357 12.142 84.8986 11.2307 84.9296 9.71494C84.9475 8.84186 84.9822 8.17141 84.9802 8.01926C84.9737 7.55269 84.1669 7.31753 83.7915 7.23062C83.4143 7.14298 83.0865 7.10903 82.8306 7.12361C82.4684 7.14405 82.2121 7.3817 82.2121 7.70857C82.2121 7.88382 82.2141 8.21709 82.2141 8.21709C81.7475 7.4839 80.997 6.97359 80.4978 6.82571C79.153 6.42633 77.7497 6.78021 76.6912 8.26135C75.8499 9.43819 75.3429 10.7711 75.1432 12.6861C74.9973 14.0861 75.045 15.5058 75.3043 16.7065C74.9909 18.0613 74.4092 18.6163 73.7721 18.6163C72.8473 18.6163 72.1769 17.1068 72.2547 14.4962C72.3061 12.7791 72.6497 11.5741 73.0253 9.83082C73.1854 9.08767 73.0553 8.69859 72.729 8.32569C72.4296 7.98371 71.7919 7.80899 70.8751 8.02389C70.2221 8.1771 69.2884 8.34186 68.4341 8.46842C68.4341 8.46842 68.4857 8.26277 68.528 7.90018C68.7502 5.99867 66.6839 6.15295 66.0246 6.7603C65.6311 7.1229 65.3633 7.55055 65.2616 8.31947C65.1004 9.53969 66.0956 10.1152 66.0956 10.1152C65.769 11.6099 64.9687 13.5624 64.1423 14.974C63.6998 15.7303 63.3612 16.2908 62.9241 16.8865C62.9225 16.6647 62.9213 16.4429 62.9205 16.2221C62.9105 13.0797 62.9523 10.6066 62.9708 9.71523C62.9887 8.84217 63.0238 8.18949 63.0218 8.03734C63.0169 7.69607 62.8176 7.56721 62.4031 7.40403C62.0366 7.25971 61.6032 7.15982 61.1537 7.12498C60.5864 7.08073 60.2445 7.38165 60.2534 7.73749C60.2552 7.80467 60.2552 8.21722 60.2552 8.21722C59.7886 7.48402 59.0381 6.97373 58.5389 6.82583C57.1941 6.42662 55.7908 6.78051 54.7323 8.26147C53.8912 9.43831 53.3404 11.0897 53.1843 12.6716C53.0389 14.146 53.0658 15.3989 53.264 16.4544C53.0502 17.5113 52.4353 18.6165 51.7402 18.6165C50.8515 18.6165 50.3458 17.8304 50.3458 14.2379C50.3458 12.1422 50.4087 11.2309 50.4396 9.71523C50.4576 8.84217 50.4922 8.17154 50.4903 8.01957C50.4837 7.55299 49.6769 7.31783 49.3015 7.23074C48.9087 7.13991 48.5696 7.1065 48.3092 7.12569C47.9656 7.15129 47.7241 7.45897 47.7241 7.68843V8.21722C47.2575 7.48402 46.5071 6.97373 46.0078 6.82583C44.663 6.42662 43.2675 6.78621 42.2012 8.26147C41.5059 9.22342 40.943 10.2899 40.6532 12.6507C40.5695 13.3329 40.5326 13.9718 40.5373 14.5689C40.2601 16.2646 39.0354 18.219 38.0337 18.219C37.4475 18.219 36.8892 17.082 36.8892 14.6588C36.8892 11.431 37.089 6.83526 37.1227 6.39233C37.1227 6.39233 38.3884 6.37082 38.6336 6.36797C39.2649 6.36103 39.8367 6.37597 40.6776 6.33295C41.0994 6.31145 41.5057 4.79778 41.0704 4.61045C40.8731 4.52566 39.4787 4.45137 38.9259 4.43963C38.4611 4.4291 37.1672 4.33334 37.1672 4.33334C37.1672 4.33334 37.2832 1.2829 37.3102 0.960662C37.3332 0.692088 36.9857 0.553808 36.7864 0.469902C36.3019 0.264968 35.8684 0.166848 35.3545 0.0609149C34.6446 -0.0855385 34.3225 0.0577152 34.2596 0.656889C34.1649 1.56624 34.1158 4.22971 34.1158 4.22971C33.5949 4.22971 31.8153 4.12788 31.2942 4.12788C30.81 4.12788 30.2874 6.21014 30.9568 6.23573C31.727 6.26559 33.0691 6.29137 33.9589 6.31821C33.9589 6.31821 33.9193 10.9897 33.9193 12.4319C33.9193 12.5853 33.9206 12.7331 33.9209 12.8764C33.4312 15.4288 31.7063 16.8076 31.7063 16.8076C32.0768 15.119 31.3201 13.851 29.9572 12.7776C29.455 12.3821 28.4638 11.6332 27.3546 10.8127C27.3546 10.8127 27.997 10.1795 28.5667 8.90583C28.9703 8.00361 28.9878 6.97109 27.997 6.74341C26.36 6.36694 25.0102 7.56919 24.6076 8.85269C24.2957 9.84698 24.4621 10.5848 25.0731 11.3512C25.1178 11.4072 25.1661 11.4644 25.216 11.522C24.8465 12.2343 24.3389 13.1932 23.9089 13.9369C22.7155 16.0015 21.814 17.6346 21.1327 17.6346C20.5881 17.6346 20.5954 15.9766 20.5954 14.4242C20.5954 13.086 20.6942 11.0739 20.7732 8.99079C20.7993 8.30186 20.4548 7.90939 19.8773 7.55391C19.5265 7.33795 18.7776 6.91333 18.3439 6.91333C17.6948 6.91333 15.8219 7.00166 14.0523 12.1205C13.8293 12.7657 13.3912 13.9413 13.3912 13.9413L13.4289 7.78569C13.4289 7.64137 13.352 7.50183 13.176 7.40638C12.8778 7.24446 12.0814 6.91333 11.3732 6.91333C11.0358 6.91333 10.8674 7.07027 10.8674 7.3831L10.8056 17.0136C10.8056 17.7453 10.8247 18.599 10.897 18.9723C10.9691 19.3462 11.0859 19.6503 11.2305 19.8312C11.3749 20.0118 11.542 20.1496 11.8174 20.2064C12.0737 20.2592 13.4774 20.4394 13.5504 19.903C13.6378 19.2601 13.6411 18.5648 14.3782 15.9715C15.5257 11.934 17.0218 9.96411 17.7251 9.26451C17.8481 9.14223 17.9885 9.13494 17.9818 9.33507C17.9517 10.2202 17.8461 12.4321 17.7751 14.3112C17.5846 19.3399 18.4994 20.272 19.8067 20.272C20.8068 20.272 22.2167 19.2782 23.7281 16.7626C24.6703 15.195 25.5851 13.6578 26.2424 12.5499C26.7005 12.974 27.2145 13.4303 27.7282 13.9179C28.9219 15.0508 29.3138 16.1274 29.0538 17.1487C28.8549 17.9295 28.1059 18.7341 26.7728 17.952C26.3843 17.7239 26.2184 17.5476 25.8277 17.2904C25.6178 17.1522 25.2973 17.1109 25.1052 17.2556C24.6061 17.6319 24.3207 18.1106 24.1577 18.7032C23.9991 19.2798 24.5766 19.5846 25.1752 19.8512C25.6907 20.0807 26.7986 20.2886 27.5051 20.3123C30.258 20.4044 32.4633 18.9831 33.9984 15.317C34.2732 18.4832 35.4428 20.2748 37.4748 20.2748C38.8332 20.2748 40.1953 18.5188 40.7909 16.7914C40.9619 17.4956 41.215 18.1079 41.5419 18.6257C43.1076 21.1065 46.1451 20.5725 47.6708 18.466C48.1426 17.815 48.2144 17.5811 48.2144 17.5811C48.4369 19.5703 50.0387 20.2652 50.9559 20.2652C51.9831 20.2652 53.0437 19.7796 53.787 18.1062C53.8741 18.2878 53.9692 18.4612 54.073 18.6257C55.6387 21.1064 58.6762 20.5725 60.2019 18.4659C60.2739 18.3671 60.3363 18.2775 60.3909 18.197L60.4357 19.5036C60.4357 19.5036 59.5652 20.302 59.0309 20.7918C56.6794 22.9493 54.8913 24.5861 54.7598 26.4923C54.5909 28.9227 56.5621 29.826 58.0534 29.9444C59.6371 30.0701 60.9932 29.1952 61.8269 27.9709C62.56 26.8933 63.04 24.5739 63.0048 22.2831C62.9907 21.3658 62.9676 20.1994 62.9495 18.9492C63.776 17.9894 64.7072 16.7763 65.5646 15.3563C66.499 13.8088 67.5004 11.7307 68.0132 10.1134C68.0132 10.1134 68.8833 10.1208 69.8118 10.06C70.1088 10.0407 70.1941 10.1013 70.1392 10.319C70.0729 10.5821 68.9661 14.8511 69.9762 17.695C70.6676 19.6418 72.2263 20.2682 73.1504 20.2682C74.2321 20.2682 75.2669 19.4513 75.8215 18.2382C75.8883 18.3734 75.9582 18.5043 76.0344 18.6251C77.6002 21.1059 80.627 20.5688 82.1634 18.4654C82.5102 17.9908 82.7069 17.5806 82.7069 17.5806C83.0366 19.6392 84.6376 20.2751 85.5545 20.2751C86.5097 20.2751 87.4162 19.8836 88.1517 18.1433C88.1825 18.9095 88.2308 19.5361 88.3073 19.7336C88.3538 19.8544 88.6253 20.0061 88.8227 20.0793C89.6965 20.4033 90.5877 20.2501 90.9174 20.1834C91.1458 20.1372 91.3239 19.954 91.3483 19.4808C91.4123 18.2384 91.373 16.151 91.7496 14.5996C92.3819 11.996 92.9716 10.9861 93.2514 10.4861C93.408 10.206 93.5846 10.1598 93.591 10.4562C93.6042 11.0561 93.6341 12.8177 93.879 15.1846C94.0589 16.9253 94.2992 17.9542 94.4838 18.2798C95.0109 19.211 95.6618 19.2551 96.1918 19.2551C96.529 19.2551 97.2341 19.1619 97.171 18.5693C97.1402 18.2805 97.1941 16.4954 97.8174 13.9304C98.2245 12.2554 98.9031 10.7418 99.1479 10.1885C99.2381 9.98449 99.2801 10.1453 99.2787 10.1767C99.2271 11.3302 99.1114 15.1034 99.5814 17.167C100.218 19.9625 102.061 20.2754 102.703 20.2754C104.074 20.2754 105.196 19.2325 105.573 16.4885C105.664 15.8282 105.53 15.3183 105.126 15.3183" fill="#262626"/>
</svg>
