<svg width="16" height="16" viewBox="0 0 16 16" fill="none" xmlns="http://www.w3.org/2000/svg">
<path d="M12.6666 14H5.33325V4.66663H12.6666V14ZM12.6666 3.33329H5.33325C4.97963 3.33329 4.64049 3.47377 4.39044 3.72382C4.14039 3.97387 3.99992 4.313 3.99992 4.66663V14C3.99992 14.3536 4.14039 14.6927 4.39044 14.9428C4.64049 15.1928 4.97963 15.3333 5.33325 15.3333H12.6666C13.0202 15.3333 13.3593 15.1928 13.6094 14.9428C13.8594 14.6927 13.9999 14.3536 13.9999 14V4.66663C13.9999 4.313 13.8594 3.97387 13.6094 3.72382C13.3593 3.47377 13.0202 3.33329 12.6666 3.33329V3.33329ZM10.6666 0.666626H2.66659C2.31296 0.666626 1.97382 0.807102 1.72378 1.05715C1.47373 1.3072 1.33325 1.64634 1.33325 1.99996V11.3333H2.66659V1.99996H10.6666V0.666626Z" fill="#979797"/>
</svg>
