<svg width="10" height="18" viewBox="0 0 10 18" fill="none" xmlns="http://www.w3.org/2000/svg">
<path d="M9.5 3.00003H6.5C5.94772 3.00003 5.5 3.44775 5.5 4.00003V7.00003H9.5C9.61374 6.99751 9.7216 7.05042 9.78923 7.14191C9.85685 7.23339 9.87578 7.35204 9.84 7.46003L9.1 9.66003C9.03181 9.86195 8.84312 9.99845 8.63 10H5.5V17.5C5.5 17.7762 5.27614 18 5 18H2.5C2.22386 18 2 17.7762 2 17.5V10H0.5C0.223858 10 0 9.77617 0 9.50003V7.50003C0 7.22389 0.223858 7.00003 0.5 7.00003H2V4.00003C2 1.79089 3.79086 3.05176e-05 6 3.05176e-05H9.5C9.77614 3.05176e-05 10 0.223888 10 0.500031V2.50003C10 2.77617 9.77614 3.00003 9.5 3.00003Z" fill="#474747"/>
</svg>
