<svg width="18" height="17" viewBox="0 0 18 17" fill="none" xmlns="http://www.w3.org/2000/svg">
<path fill-rule="evenodd" clip-rule="evenodd" d="M0 2.00003C0 0.895461 0.89543 3.05176e-05 2 3.05176e-05C2.53043 3.05176e-05 3.03914 0.210744 3.41421 0.585817C3.78929 0.96089 4 1.4696 4 2.00003C4 3.1046 3.10457 4.00003 2 4.00003C0.89543 4.00003 0 3.1046 0 2.00003ZM17.5 10.41C17.5345 8.24492 16.0574 6.34765 13.95 5.85003C12.5377 5.54593 11.0657 5.94469 10 6.92002V6.50002C10 6.22388 9.77614 6.00002 9.5 6.00002H7C6.72386 6.00002 6.5 6.22388 6.5 6.50002V16.5C6.5 16.7762 6.72386 17 7 17H9.5C9.77614 17 10 16.7762 10 16.5V10.86C9.97531 9.85574 10.6753 8.9787 11.66 8.78003C12.2464 8.67881 12.8473 8.84393 13.2997 9.23053C13.752 9.61713 14.0087 10.1851 14 10.78V16.5C14 16.7762 14.2239 17 14.5 17H17C17.2761 17 17.5 16.7762 17.5 16.5V10.41ZM4 6.50003V16.5C4 16.7762 3.77614 17 3.5 17H1C0.723858 17 0.5 16.7762 0.5 16.5V6.50003C0.5 6.22389 0.723858 6.00003 1 6.00003H3.5C3.77614 6.00003 4 6.22389 4 6.50003Z" fill="#474747"/>
</svg>
