<svg width="20" height="20" viewBox="0 0 20 20" fill="none" xmlns="http://www.w3.org/2000/svg">
<path d="M14.4806 6.10352e-05H5.51916C2.4759 6.10352e-05 0 2.47608 0 5.51934V14.4808C0 17.5242 2.4759 20.0001 5.51916 20.0001H14.4806C17.5241 20.0001 20 17.524 20 14.4808V5.51934C20.0001 2.47608 17.5241 6.10352e-05 14.4806 6.10352e-05ZM18.2256 14.4808C18.2256 16.5457 16.5456 18.2256 14.4807 18.2256H5.51916C3.45435 18.2257 1.7745 16.5457 1.7745 14.4808V5.51934C1.7745 3.45453 3.45435 1.77456 5.51916 1.77456H14.4806C16.5455 1.77456 18.2255 3.45453 18.2255 5.51934V14.4808H18.2256Z" fill="#474747"/>
<path d="M10.0002 4.84683C7.1585 4.84683 4.84668 7.15865 4.84668 10.0003C4.84668 12.8419 7.1585 15.1536 10.0002 15.1536C12.8419 15.1536 15.1537 12.8419 15.1537 10.0003C15.1537 7.15865 12.8419 4.84683 10.0002 4.84683ZM10.0002 13.379C8.13708 13.379 6.62118 11.8633 6.62118 10.0002C6.62118 8.13699 8.13696 6.62121 10.0002 6.62121C11.8634 6.62121 13.3792 8.13699 13.3792 10.0002C13.3792 11.8633 11.8633 13.379 10.0002 13.379Z" fill="#474747"/>
<path d="M15.3697 3.34222C15.0278 3.34222 14.6919 3.48063 14.4505 3.72315C14.2078 3.96448 14.0684 4.30045 14.0684 4.64352C14.0684 4.98552 14.208 5.32138 14.4505 5.56389C14.6918 5.80522 15.0278 5.94482 15.3697 5.94482C15.7127 5.94482 16.0475 5.80522 16.29 5.56389C16.5325 5.32138 16.671 4.98541 16.671 4.64352C16.671 4.30045 16.5325 3.96448 16.29 3.72315C16.0487 3.48063 15.7127 3.34222 15.3697 3.34222Z" fill="#474747"/>
</svg>
