<svg width="24" height="22" viewBox="0 0 24 22" fill="none" xmlns="http://www.w3.org/2000/svg">
<path fill-rule="evenodd" clip-rule="evenodd" d="M5.36533 0.0211865C5.36533 0.0328391 5.39653 0.0438031 5.43467 0.045551C5.50107 0.0485701 5.50144 0.0490998 5.44405 0.0576803C5.41109 0.0626062 5.37035 0.0552968 5.35355 0.0414726C5.31941 0.0132945 5.13067 0.0320976 5.13067 0.0636655C5.13067 0.073888 5.16667 0.0859643 5.21067 0.0904665C5.25467 0.0949156 5.19707 0.0941211 5.08267 0.0886656C4.93621 0.0816211 4.87467 0.0858054 4.87467 0.102649C4.87467 0.115837 4.85787 0.124577 4.83733 0.122087C4.77077 0.113984 4.62181 0.150795 4.59595 0.181727C4.57509 0.206675 4.58203 0.211865 4.63611 0.211865C4.67205 0.211865 4.70741 0.202331 4.71467 0.190679C4.72192 0.179026 4.76091 0.169492 4.80128 0.169492C4.84165 0.169492 4.87467 0.159958 4.87467 0.148306C4.87467 0.136229 4.92731 0.128708 4.99733 0.130827C5.10373 0.134005 5.10795 0.135594 5.02933 0.142638C4.97947 0.147087 4.93867 0.159746 4.93867 0.17071C4.93867 0.181674 4.89605 0.190679 4.84395 0.190679C4.79184 0.190679 4.74325 0.200213 4.736 0.211865C4.71776 0.241156 4.60549 0.238454 4.55568 0.207575C4.52523 0.188666 4.50192 0.188136 4.46533 0.205403C4.43819 0.218221 4.38 0.24444 4.336 0.263666C4.24933 0.301537 4.2344 0.330192 4.29333 0.345711C4.31387 0.351114 4.28267 0.350584 4.224 0.344493C4.11893 0.333635 4.10389 0.363826 4.20267 0.387449C4.23029 0.394016 4.22091 0.398519 4.176 0.400107C4.13787 0.401432 4.10667 0.410966 4.10667 0.421241C4.10667 0.431569 4.08267 0.444546 4.05333 0.450108C4.024 0.455669 4 0.452014 4 0.442004C4 0.43194 4.0192 0.42373 4.04267 0.42373C4.06635 0.42373 4.08533 0.409588 4.08533 0.391951C4.08533 0.347459 4.03781 0.352385 3.98357 0.402544C3.9584 0.425849 3.92299 0.444917 3.90491 0.444917C3.88683 0.444917 3.872 0.454451 3.872 0.466104C3.872 0.477756 3.8528 0.48729 3.82933 0.48729C3.80587 0.48729 3.78667 0.495712 3.78667 0.505987C3.78667 0.516316 3.76507 0.530616 3.73867 0.537767C3.69792 0.54889 3.69552 0.554345 3.72267 0.574049C3.74885 0.593011 3.74709 0.594759 3.71285 0.583583C3.66949 0.569441 3.488 0.648308 3.488 0.681306C3.488 0.691104 3.47504 0.699155 3.45915 0.699155C3.44331 0.699155 3.40021 0.727757 3.36336 0.762715C3.32651 0.797673 3.28821 0.826274 3.27819 0.826274C3.26816 0.826274 3.24256 0.845342 3.22133 0.868647C3.20011 0.891953 3.16981 0.911021 3.15403 0.911021C3.13824 0.911021 3.12533 0.920555 3.12533 0.932207C3.12533 0.94386 3.14016 0.953394 3.15829 0.953394C3.18224 0.953394 3.17605 0.968489 3.13568 1.00858C3.10512 1.03899 3.07563 1.05938 3.07019 1.05398C3.06475 1.04857 3.07493 1.0321 3.0928 1.01738C3.11072 1.00265 3.12533 0.982207 3.12533 0.971985C3.12533 0.934008 3.08592 0.955724 3.00544 1.03814C2.95989 1.0847 2.91067 1.12283 2.896 1.12289C2.88133 1.12289 2.86933 1.13242 2.86933 1.14407C2.86933 1.15572 2.88331 1.16526 2.90032 1.16526C2.91739 1.16526 2.83819 1.25821 2.72432 1.37183C2.61051 1.48544 2.51424 1.56648 2.51045 1.55191C2.50123 1.51653 2.464 1.51796 2.464 1.55371C2.464 1.56929 2.4376 1.60589 2.40533 1.63512C2.32736 1.70583 2.25067 1.79693 2.25067 1.81892C2.25067 1.82866 2.23147 1.85393 2.208 1.87501C2.18453 1.89609 2.16533 1.92617 2.16533 1.94185C2.16533 1.95753 2.15733 1.97035 2.14763 1.97035C2.13787 1.97035 2.11632 1.99656 2.09973 2.02861C2.0832 2.06065 2.05381 2.10139 2.03456 2.11908C1.97856 2.17045 1.90581 2.31209 1.91856 2.34498C1.92496 2.36156 1.92085 2.3694 1.90949 2.3624C1.89808 2.35541 1.87195 2.38825 1.85136 2.43544C1.83077 2.48258 1.80661 2.5212 1.79765 2.5212C1.78869 2.5212 1.78133 2.54026 1.78133 2.56357C1.78133 2.58687 1.77173 2.60594 1.76 2.60594C1.74827 2.60594 1.73867 2.61548 1.73867 2.62713C1.73867 2.63878 1.75173 2.64832 1.76773 2.64832C1.78773 2.64832 1.79333 2.66601 1.78576 2.70547L1.77472 2.76267L1.75605 2.71251C1.74155 2.67358 1.73163 2.66802 1.71189 2.68762C1.69211 2.70727 1.69227 2.72226 1.71253 2.75451C1.74405 2.80462 1.74693 2.88137 1.71733 2.88137C1.7056 2.88137 1.69488 2.90282 1.69355 2.92904C1.69168 2.9649 1.68864 2.96754 1.68128 2.93963C1.66587 2.881 1.63685 2.89599 1.5992 2.982C1.58005 3.0257 1.55563 3.07803 1.54485 3.09826C1.53413 3.1185 1.52533 3.15711 1.52533 3.18407C1.52533 3.21103 1.51771 3.24212 1.50837 3.25319C1.47397 3.29397 1.4376 3.43365 1.45067 3.4747C1.45909 3.50102 1.45451 3.51696 1.4384 3.51696C1.41925 3.51696 1.41515 3.57051 1.42261 3.72353C1.42811 3.83714 1.42891 3.89435 1.42443 3.85065C1.41989 3.80695 1.40773 3.7712 1.39744 3.7712C1.36565 3.7712 1.34672 3.95865 1.37509 3.99255C1.38901 4.00923 1.39637 4.0497 1.39141 4.08243C1.38277 4.13942 1.38224 4.13905 1.3792 4.07311C1.37344 3.94949 1.33333 4.00044 1.33333 4.13137C1.33333 4.20198 1.34283 4.25849 1.35467 4.25849C1.3664 4.25849 1.376 4.24737 1.376 4.23376C1.376 4.2202 1.38219 4.21516 1.38971 4.22269C1.39723 4.23015 1.39003 4.25229 1.37371 4.27184C1.32907 4.32523 1.32907 16.8613 1.37371 16.9147C1.39003 16.9342 1.39723 16.9564 1.38971 16.9638C1.38219 16.9714 1.376 16.9663 1.376 16.9528C1.376 16.9392 1.3664 16.928 1.35467 16.928C1.34283 16.928 1.33333 16.9845 1.33333 17.0552C1.33333 17.1861 1.37344 17.237 1.3792 17.1134C1.38224 17.0475 1.38277 17.0471 1.39141 17.1041C1.39637 17.1368 1.38901 17.1773 1.37509 17.194C1.34672 17.2279 1.36565 17.4153 1.39744 17.4153C1.40773 17.4153 1.41989 17.3796 1.42443 17.3359C1.42891 17.2922 1.42811 17.3494 1.42261 17.463C1.41515 17.616 1.41925 17.6696 1.4384 17.6696C1.45451 17.6696 1.45909 17.6855 1.45067 17.7118C1.4376 17.7529 1.47397 17.8925 1.50837 17.9333C1.51771 17.9444 1.52533 17.9755 1.52533 18.0025C1.52533 18.0294 1.53413 18.068 1.54485 18.0883C1.55563 18.1085 1.58005 18.1608 1.5992 18.2045C1.63685 18.2905 1.66587 18.3055 1.68128 18.2469C1.68864 18.219 1.69168 18.2216 1.69355 18.2575C1.69488 18.2837 1.7056 18.3052 1.71733 18.3052C1.74693 18.3052 1.74405 18.3819 1.71253 18.432C1.69227 18.4643 1.69211 18.4793 1.71189 18.4989C1.73163 18.5185 1.74155 18.5129 1.75605 18.474L1.77472 18.4239L1.78576 18.4811C1.79333 18.5205 1.78773 18.5382 1.76773 18.5382C1.75173 18.5382 1.73867 18.5477 1.73867 18.5594C1.73867 18.571 1.74827 18.5806 1.76 18.5806C1.77173 18.5806 1.78133 18.5996 1.78133 18.623C1.78133 18.6463 1.78869 18.6653 1.79765 18.6653C1.80661 18.6653 1.83077 18.7039 1.85136 18.7511C1.87195 18.7983 1.89808 18.8311 1.90949 18.8241C1.92085 18.8171 1.92496 18.825 1.91856 18.8415C1.90507 18.8764 1.9808 19.0192 2.03973 19.0699C2.06187 19.089 2.08 19.1181 2.08 19.1346C2.08 19.151 2.0992 19.1782 2.12267 19.195C2.14613 19.2118 2.16533 19.2363 2.16533 19.2493C2.16533 19.2625 2.18453 19.2904 2.208 19.3115C2.23147 19.3326 2.25067 19.3579 2.25067 19.3676C2.25067 19.3896 2.32736 19.4807 2.40533 19.5514C2.4376 19.5806 2.464 19.6172 2.464 19.6328C2.464 19.6686 2.50123 19.67 2.51045 19.6346C2.51424 19.62 2.61051 19.7011 2.72432 19.8147C2.83819 19.9283 2.91739 20.0213 2.90032 20.0213C2.88331 20.0213 2.86933 20.0308 2.86933 20.0425C2.86933 20.0541 2.88133 20.0636 2.896 20.0636C2.91067 20.0637 2.95989 20.1018 3.00544 20.1484C3.08592 20.2308 3.12533 20.2525 3.12533 20.2145C3.12533 20.2043 3.11072 20.1839 3.0928 20.1691C3.07493 20.1544 3.06475 20.138 3.07019 20.1325C3.07563 20.1271 3.10512 20.1475 3.13568 20.1779C3.17605 20.218 3.18224 20.2331 3.15829 20.2331C3.14016 20.2331 3.12533 20.2427 3.12533 20.2543C3.12533 20.266 3.13824 20.2755 3.15403 20.2755C3.16981 20.2755 3.20011 20.2946 3.22133 20.3179C3.24256 20.3412 3.26816 20.3602 3.27819 20.3602C3.28821 20.3602 3.32651 20.3889 3.36336 20.4238C3.40021 20.4588 3.44331 20.4874 3.45915 20.4874C3.47504 20.4874 3.488 20.4954 3.488 20.5052C3.488 20.5382 3.66949 20.6171 3.71285 20.6029C3.74709 20.5918 3.74885 20.5935 3.72267 20.6125C3.69552 20.6322 3.69792 20.6376 3.73867 20.6488C3.76507 20.6559 3.78667 20.6702 3.78667 20.6805C3.78667 20.6908 3.80587 20.6992 3.82933 20.6992C3.8528 20.6992 3.872 20.7088 3.872 20.7204C3.872 20.7321 3.88683 20.7416 3.90491 20.7416C3.92299 20.7416 3.9584 20.7607 3.98357 20.784C4.03781 20.8341 4.08533 20.8391 4.08533 20.7946C4.08533 20.7769 4.06635 20.7628 4.04267 20.7628C4.0192 20.7628 4 20.7546 4 20.7445C4 20.7345 4.024 20.7309 4.05333 20.7364C4.08267 20.742 4.10667 20.755 4.10667 20.7653C4.10667 20.7756 4.13787 20.7851 4.176 20.7864C4.22091 20.788 4.23029 20.7925 4.20267 20.7991C4.10389 20.8227 4.11893 20.8529 4.224 20.842C4.28267 20.8359 4.31387 20.8354 4.29333 20.8408C4.2344 20.8563 4.24933 20.885 4.336 20.9229C4.38 20.9421 4.43819 20.9683 4.46533 20.9811C4.50192 20.9984 4.52523 20.9979 4.55568 20.9789C4.60549 20.9481 4.71776 20.9454 4.736 20.9747C4.74325 20.9863 4.79184 20.9958 4.84395 20.9958C4.89605 20.9958 4.93867 21.0048 4.93867 21.0158C4.93867 21.0268 4.97947 21.0394 5.02933 21.0439C5.10795 21.0509 5.10373 21.0525 4.99733 21.0557C4.92731 21.0578 4.87467 21.0503 4.87467 21.0382C4.87467 21.0266 4.84165 21.017 4.80128 21.017C4.76091 21.017 4.72192 21.0075 4.71467 20.9958C4.70741 20.9842 4.67205 20.9747 4.63611 20.9747C4.58203 20.9747 4.57509 20.9799 4.59595 21.0048C4.62181 21.0357 4.77077 21.0725 4.83733 21.0644C4.85787 21.0619 4.87467 21.0707 4.87467 21.0839C4.87467 21.1007 4.93621 21.1049 5.08267 21.0979C5.19707 21.0924 5.25467 21.0916 5.21067 21.0961C5.16667 21.1006 5.13067 21.1126 5.13067 21.1229C5.13067 21.1544 5.31941 21.1732 5.35355 21.1451C5.37035 21.1312 5.41109 21.1239 5.44405 21.1288C5.50144 21.1374 5.50107 21.138 5.43467 21.141C5.31019 21.1467 5.36149 21.1865 5.49333 21.1865C5.56443 21.1865 5.62133 21.1771 5.62133 21.1653C5.62133 21.1537 5.60533 21.1442 5.58576 21.1442C5.56624 21.1442 5.55664 21.1378 5.56448 21.13C5.57232 21.1222 5.60416 21.1294 5.63525 21.1459C5.72037 21.1911 18.2796 21.1911 18.3647 21.1459C18.3958 21.1294 18.4277 21.1222 18.4355 21.13C18.4434 21.1378 18.4338 21.1442 18.4142 21.1442C18.3947 21.1442 18.3787 21.1537 18.3787 21.1653C18.3787 21.1771 18.4356 21.1865 18.5067 21.1865C18.6385 21.1865 18.6898 21.1467 18.5653 21.141C18.4989 21.138 18.4986 21.1374 18.5559 21.1288C18.5889 21.1239 18.6297 21.1312 18.6465 21.1451C18.6806 21.1732 18.8693 21.1544 18.8693 21.1229C18.8693 21.1126 18.8333 21.1006 18.7893 21.0961C18.7453 21.0916 18.8029 21.0924 18.9173 21.0979C19.0638 21.1049 19.1253 21.1007 19.1253 21.0839C19.1253 21.0707 19.1421 21.0619 19.1627 21.0644C19.2292 21.0725 19.3782 21.0357 19.4041 21.0048C19.4249 20.9799 19.418 20.9747 19.3639 20.9747C19.3279 20.9747 19.2926 20.9842 19.2853 20.9958C19.2781 21.0075 19.2391 21.017 19.1987 21.017C19.1583 21.017 19.1253 21.0266 19.1253 21.0382C19.1253 21.0503 19.0727 21.0578 19.0027 21.0557C18.8963 21.0525 18.8921 21.0509 18.9707 21.0439C19.0205 21.0394 19.0613 21.0268 19.0613 21.0158C19.0613 21.0048 19.1039 20.9958 19.1561 20.9958C19.2082 20.9958 19.2567 20.9863 19.264 20.9747C19.2822 20.9454 19.3945 20.9481 19.4443 20.9789C19.4748 20.9979 19.4981 20.9984 19.5347 20.9811C19.5618 20.9683 19.62 20.9421 19.664 20.9229C19.7507 20.885 19.7656 20.8563 19.7067 20.8408C19.6861 20.8354 19.7173 20.8359 19.776 20.842C19.8811 20.8529 19.8961 20.8227 19.7973 20.7991C19.7697 20.7925 19.7791 20.788 19.824 20.7864C19.8621 20.7851 19.8933 20.7756 19.8933 20.7653C19.8933 20.755 19.9173 20.742 19.9467 20.7364C19.976 20.7309 20 20.7345 20 20.7445C20 20.7546 19.9808 20.7628 19.9573 20.7628C19.9337 20.7628 19.9147 20.7769 19.9147 20.7946C19.9147 20.8391 19.9622 20.8341 20.0164 20.784C20.0416 20.7607 20.077 20.7416 20.0951 20.7416C20.1132 20.7416 20.128 20.7321 20.128 20.7204C20.128 20.7088 20.1472 20.6992 20.1707 20.6992C20.1941 20.6992 20.2133 20.6908 20.2133 20.6805C20.2133 20.6702 20.2349 20.6559 20.2613 20.6488C20.3021 20.6376 20.3045 20.6322 20.2773 20.6125C20.2511 20.5935 20.2529 20.5918 20.2871 20.6029C20.3305 20.6171 20.512 20.5382 20.512 20.5052C20.512 20.4954 20.525 20.4874 20.5409 20.4874C20.5567 20.4874 20.5998 20.4588 20.6366 20.4238C20.6735 20.3889 20.7118 20.3602 20.7218 20.3602C20.7318 20.3602 20.7574 20.3412 20.7787 20.3179C20.7999 20.2946 20.8302 20.2755 20.846 20.2755C20.8618 20.2755 20.8747 20.266 20.8747 20.2543C20.8747 20.2427 20.8598 20.2331 20.8417 20.2331C20.8178 20.2331 20.8239 20.218 20.8643 20.1779C20.8949 20.1475 20.9244 20.1271 20.9298 20.1325C20.9353 20.138 20.9251 20.1544 20.9072 20.1691C20.8893 20.1839 20.8747 20.2043 20.8747 20.2145C20.8747 20.2525 20.9141 20.2308 20.9946 20.1484C21.0401 20.1018 21.0893 20.0637 21.104 20.0636C21.1187 20.0636 21.1307 20.0548 21.1307 20.044C21.1307 20.0332 21.1187 20.0213 21.104 20.0175C21.0893 20.0137 21.1709 19.9181 21.2853 19.8051C21.3997 19.692 21.4933 19.6134 21.4933 19.6303C21.4933 19.6472 21.5029 19.6611 21.5147 19.6611C21.5264 19.6611 21.536 19.6484 21.536 19.6328C21.536 19.6172 21.5624 19.5806 21.5947 19.5514C21.6726 19.4807 21.7493 19.3896 21.7493 19.3676C21.7493 19.3579 21.7685 19.3326 21.792 19.3115C21.8155 19.2904 21.8347 19.2604 21.8347 19.2447C21.8347 19.229 21.8427 19.2162 21.8524 19.2162C21.8621 19.2162 21.8837 19.19 21.9003 19.1579C21.9168 19.1259 21.9462 19.0851 21.9654 19.0674C22.0214 19.0161 22.0942 18.8744 22.0814 18.8415C22.075 18.825 22.0791 18.8171 22.0905 18.8241C22.1019 18.8311 22.1281 18.7983 22.1486 18.7511C22.1692 18.7039 22.1934 18.6653 22.2023 18.6653C22.2113 18.6653 22.2187 18.6463 22.2187 18.623C22.2187 18.5996 22.2283 18.5806 22.24 18.5806C22.2517 18.5806 22.2613 18.571 22.2613 18.5594C22.2613 18.5477 22.2483 18.5382 22.2323 18.5382C22.2123 18.5382 22.2067 18.5205 22.2142 18.4811L22.2253 18.4239L22.2439 18.474C22.2585 18.5129 22.2684 18.5185 22.2881 18.4989C22.3079 18.4793 22.3077 18.4643 22.2875 18.432C22.2559 18.3819 22.2531 18.3052 22.2827 18.3052C22.2944 18.3052 22.3051 18.2837 22.3065 18.2575C22.3083 18.2216 22.3114 18.219 22.3187 18.2469C22.3341 18.3055 22.3631 18.2905 22.4008 18.2045C22.4199 18.1608 22.4444 18.1085 22.4551 18.0883C22.4659 18.068 22.4747 18.0294 22.4747 18.0025C22.4747 17.9755 22.4823 17.9444 22.4916 17.9333C22.526 17.8925 22.5624 17.7529 22.5493 17.7118C22.5409 17.6855 22.5455 17.6696 22.5616 17.6696C22.5807 17.6696 22.5849 17.616 22.5774 17.463C22.5719 17.3494 22.5711 17.2922 22.5756 17.3359C22.5801 17.3796 22.5923 17.4153 22.6026 17.4153C22.6343 17.4153 22.6533 17.2279 22.6249 17.194C22.611 17.1773 22.6036 17.1368 22.6086 17.1041C22.6172 17.0471 22.6178 17.0475 22.6208 17.1134C22.6266 17.237 22.6667 17.1861 22.6667 17.0552C22.6667 16.9845 22.6572 16.928 22.6453 16.928C22.6336 16.928 22.624 16.9392 22.624 16.9528C22.624 16.9663 22.6178 16.9714 22.6103 16.9638C22.6028 16.9564 22.61 16.9342 22.6263 16.9147C22.6709 16.8613 22.6709 4.32523 22.6263 4.27184C22.61 4.25229 22.6028 4.23015 22.6103 4.22269C22.6178 4.21516 22.624 4.2202 22.624 4.23376C22.624 4.24737 22.6336 4.25849 22.6453 4.25849C22.6572 4.25849 22.6667 4.20198 22.6667 4.13137C22.6667 4.00044 22.6266 3.94949 22.6208 4.07311C22.6178 4.13905 22.6172 4.13942 22.6086 4.08243C22.6036 4.0497 22.611 4.00923 22.6249 3.99255C22.6533 3.95865 22.6343 3.7712 22.6026 3.7712C22.5923 3.7712 22.5801 3.80695 22.5756 3.85065C22.5711 3.89435 22.5719 3.83714 22.5774 3.72353C22.5849 3.57051 22.5807 3.51696 22.5616 3.51696C22.5455 3.51696 22.5409 3.50102 22.5493 3.4747C22.5624 3.43365 22.526 3.29397 22.4916 3.25319C22.4823 3.24212 22.4747 3.21103 22.4747 3.18407C22.4747 3.15711 22.4659 3.1185 22.4551 3.09826C22.4444 3.07803 22.4199 3.0257 22.4008 2.982C22.3631 2.89599 22.3341 2.881 22.3187 2.93963C22.3114 2.96754 22.3083 2.9649 22.3065 2.92904C22.3051 2.90282 22.2944 2.88137 22.2827 2.88137C22.2531 2.88137 22.2559 2.80462 22.2875 2.75451C22.3077 2.72226 22.3079 2.70727 22.2881 2.68762C22.2684 2.66802 22.2585 2.67358 22.2439 2.71251L22.2253 2.76267L22.2142 2.70547C22.2067 2.66601 22.2123 2.64832 22.2323 2.64832C22.2483 2.64832 22.2613 2.63878 22.2613 2.62713C22.2613 2.61548 22.2517 2.60594 22.24 2.60594C22.2283 2.60594 22.2187 2.58687 22.2187 2.56357C22.2187 2.54026 22.2113 2.5212 22.2023 2.5212C22.1934 2.5212 22.1692 2.48258 22.1486 2.43544C22.1281 2.38825 22.1019 2.35541 22.0905 2.3624C22.0791 2.3694 22.075 2.36156 22.0814 2.34498C22.0942 2.31209 22.0214 2.17045 21.9654 2.11908C21.9462 2.10139 21.9168 2.06065 21.9003 2.02861C21.8837 1.99656 21.8621 1.97035 21.8524 1.97035C21.8427 1.97035 21.8347 1.95753 21.8347 1.94185C21.8347 1.92617 21.8155 1.89609 21.792 1.87501C21.7685 1.85393 21.7493 1.82866 21.7493 1.81892C21.7493 1.79693 21.6726 1.70583 21.5947 1.63512C21.5624 1.60589 21.536 1.56929 21.536 1.55371C21.536 1.53814 21.5264 1.52543 21.5147 1.52543C21.5029 1.52543 21.4933 1.53931 21.4933 1.5562C21.4933 1.57315 21.3997 1.4945 21.2853 1.38141C21.1709 1.26838 21.0893 1.17278 21.104 1.16902C21.1387 1.16012 21.1387 1.12289 21.104 1.12289C21.0893 1.12283 21.0401 1.0847 20.9946 1.03814C20.9141 0.955724 20.8747 0.934008 20.8747 0.971985C20.8747 0.982207 20.8893 1.00265 20.9072 1.01738C20.9251 1.0321 20.9353 1.04857 20.9298 1.05398C20.9244 1.05938 20.8949 1.03899 20.8643 1.00858C20.8239 0.968489 20.8178 0.953394 20.8417 0.953394C20.8598 0.953394 20.8747 0.94386 20.8747 0.932207C20.8747 0.920555 20.8618 0.911021 20.846 0.911021C20.8302 0.911021 20.7999 0.891953 20.7787 0.868647C20.7574 0.845342 20.7318 0.826274 20.7218 0.826274C20.7118 0.826274 20.6735 0.797673 20.6366 0.762715C20.5998 0.727757 20.5567 0.699155 20.5409 0.699155C20.525 0.699155 20.512 0.691104 20.512 0.681306C20.512 0.648308 20.3305 0.569441 20.2871 0.583583C20.2529 0.594759 20.2511 0.593011 20.2773 0.574049C20.3045 0.554345 20.3021 0.54889 20.2613 0.537767C20.2349 0.530616 20.2133 0.516316 20.2133 0.505987C20.2133 0.495712 20.1941 0.48729 20.1707 0.48729C20.1472 0.48729 20.128 0.477756 20.128 0.466104C20.128 0.454451 20.1132 0.444917 20.0951 0.444917C20.077 0.444917 20.0416 0.425849 20.0164 0.402544C19.9622 0.352385 19.9147 0.347459 19.9147 0.391951C19.9147 0.409588 19.9337 0.42373 19.9573 0.42373C19.9808 0.42373 20 0.43194 20 0.442004C20 0.452014 19.976 0.455669 19.9467 0.450108C19.9173 0.444546 19.8933 0.431569 19.8933 0.421241C19.8933 0.410966 19.8621 0.401432 19.824 0.400107C19.7791 0.398519 19.7697 0.394016 19.7973 0.387449C19.8961 0.363826 19.8811 0.333635 19.776 0.344493C19.7173 0.350584 19.6861 0.351114 19.7067 0.345711C19.7656 0.330192 19.7507 0.301537 19.664 0.263666C19.62 0.24444 19.5618 0.218221 19.5347 0.205403C19.4981 0.188136 19.4748 0.188666 19.4443 0.207575C19.3945 0.238454 19.2822 0.241156 19.264 0.211865C19.2567 0.200213 19.2082 0.190679 19.1561 0.190679C19.1039 0.190679 19.0613 0.181674 19.0613 0.17071C19.0613 0.159746 19.0205 0.147087 18.9707 0.142638C18.8921 0.135594 18.8963 0.134005 19.0027 0.130827C19.0727 0.128708 19.1253 0.136229 19.1253 0.148306C19.1253 0.159958 19.1583 0.169492 19.1987 0.169492C19.2391 0.169492 19.2781 0.179026 19.2853 0.190679C19.2926 0.202331 19.3279 0.211865 19.3639 0.211865C19.418 0.211865 19.4249 0.206675 19.4041 0.181727C19.3782 0.150795 19.2292 0.113984 19.1627 0.122087C19.1421 0.124577 19.1253 0.115837 19.1253 0.102649C19.1253 0.0858054 19.0638 0.0816211 18.9173 0.0886656C18.8029 0.0941211 18.7453 0.0949156 18.7893 0.0904665C18.8333 0.0859643 18.8693 0.073888 18.8693 0.0636655C18.8693 0.0320976 18.6806 0.0132945 18.6465 0.0414726C18.6297 0.0552968 18.5889 0.0626062 18.5559 0.0576803C18.4986 0.0490998 18.4989 0.0485701 18.5653 0.045551C18.6898 0.0398307 18.6385 0 18.5067 0C18.4356 0 18.3787 0.009428 18.3787 0.0211865C18.3787 0.0328391 18.3947 0.042373 18.4142 0.042373C18.4338 0.042373 18.4434 0.048729 18.4355 0.0565151C18.4277 0.0643011 18.3958 0.0571506 18.3647 0.0406252C18.2796 -0.00460807 5.72037 -0.00460807 5.63525 0.0406252C5.60416 0.0571506 5.57232 0.0643011 5.56448 0.0565151C5.55664 0.048729 5.56624 0.042373 5.58576 0.042373C5.60533 0.042373 5.62133 0.0328391 5.62133 0.0211865C5.62133 0.009428 5.56443 0 5.49333 0C5.42224 0 5.36533 0.009428 5.36533 0.0211865ZM2.66731 1.33412C2.57435 1.42697 2.50523 1.50991 2.51376 1.51839C2.52944 1.5339 2.86933 1.21203 2.86933 1.18163C2.86933 1.1428 2.82635 1.17522 2.66731 1.33412ZM21.1307 1.18163C21.1307 1.21203 21.4706 1.5339 21.4862 1.51839C21.4948 1.50991 21.4257 1.42697 21.3327 1.33412C21.1737 1.17522 21.1307 1.1428 21.1307 1.18163ZM1.67467 2.81908C1.67467 2.84307 1.68427 2.85679 1.696 2.84959C1.70773 2.84238 1.71733 2.82273 1.71733 2.80594C1.71733 2.78915 1.70773 2.77543 1.696 2.77543C1.68427 2.77543 1.67467 2.79509 1.67467 2.81908ZM22.2827 2.80594C22.2827 2.82273 22.2923 2.84238 22.304 2.84959C22.3157 2.85679 22.3253 2.84307 22.3253 2.81908C22.3253 2.79509 22.3157 2.77543 22.304 2.77543C22.2923 2.77543 22.2827 2.78915 22.2827 2.80594ZM1.54832 3.37549C1.53568 3.38804 1.52533 3.43931 1.52533 3.48942C1.52533 3.53953 1.51627 3.58052 1.50523 3.58052C1.49419 3.58052 1.48144 3.62104 1.47696 3.67057C1.46987 3.74864 1.46827 3.74445 1.46507 3.63879C1.46293 3.56924 1.47051 3.51696 1.48267 3.51696C1.4944 3.51696 1.504 3.48418 1.504 3.44408C1.504 3.40399 1.5136 3.36527 1.52533 3.35806C1.53707 3.35086 1.54811 3.31929 1.54987 3.28794L1.55307 3.23094L1.56219 3.2918C1.5672 3.32528 1.56096 3.36294 1.54832 3.37549ZM22.4765 3.357C22.4872 3.36807 22.496 3.40859 22.496 3.44705C22.496 3.4855 22.5056 3.51696 22.5173 3.51696C22.5295 3.51696 22.5371 3.56924 22.5349 3.63879C22.5317 3.74445 22.5301 3.74864 22.523 3.67057C22.5186 3.62104 22.5058 3.58052 22.4948 3.58052C22.4837 3.58052 22.4747 3.5382 22.4747 3.48645C22.4747 3.43471 22.4651 3.38645 22.4533 3.37925C22.4416 3.37205 22.4333 3.33571 22.4349 3.29853C22.4374 3.24085 22.4392 3.23873 22.4474 3.28391C22.4526 3.31304 22.4657 3.34593 22.4765 3.357ZM12.5973 3.39016C13.1703 3.42189 13.6978 3.4918 14.208 3.60367L14.3893 3.64329C14.7703 3.72607 15.523 3.96294 15.8131 4.09133C15.8628 4.11336 15.9114 4.13137 15.9211 4.13137C15.9308 4.13137 15.9765 4.14912 16.0227 4.17078C16.0689 4.19244 16.1499 4.22804 16.2027 4.24986C16.7012 4.4559 17.5048 4.91459 18.08 5.32142C18.2347 5.4309 18.6521 5.76295 18.8609 5.94282C19.2117 6.24494 19.9516 7.01216 20.1054 7.23334C20.1223 7.25766 20.142 7.28234 20.1492 7.28816C20.2228 7.34839 20.7556 8.11274 20.8201 8.25067C21.0746 8.79548 20.7879 9.46068 20.2027 9.68282C20.0495 9.74093 19.659 9.75449 19.5307 9.70613C19.2441 9.59813 19.0708 9.45671 18.8782 9.17376C18.1954 8.17053 17.298 7.31502 16.2793 6.69611C16.0148 6.53541 15.2853 6.16528 15.2331 6.16528C15.2264 6.16528 15.1802 6.14706 15.1305 6.12481C14.0247 5.63027 12.2842 5.3978 11.008 5.57423C10.3588 5.66395 9.74976 5.80103 9.3216 5.95373C9.0784 6.04049 8.95941 6.08567 8.86955 6.12534C8.81984 6.14732 8.77333 6.16528 8.76629 6.16528C8.73797 6.16528 8.05163 6.50633 7.872 6.60967C6.80528 7.22328 5.84981 8.1084 5.17269 9.11021C4.94688 9.44432 4.7768 9.58833 4.46933 9.70576C4.13611 9.83304 3.5704 9.6574 3.33141 9.35247C2.8672 8.7601 3.05963 8.17641 4.11669 6.97079C4.56096 6.46401 5.55653 5.54886 5.83221 5.39377C5.85115 5.38312 5.87147 5.36803 5.87733 5.3603C5.88688 5.34769 6.17285 5.14875 6.25824 5.09536C6.27685 5.08371 6.36016 5.02984 6.44325 4.97566C6.75413 4.77301 7.41989 4.41665 7.75467 4.27369C7.79573 4.25611 7.87253 4.22253 7.92533 4.19906C9.27515 3.59832 10.9908 3.30128 12.5973 3.39016ZM12.7893 7.22418C12.8656 7.23652 12.9952 7.25723 13.0773 7.27021C13.7778 7.38096 14.8232 7.7521 15.2246 8.0325C15.2558 8.05427 15.2869 8.07207 15.2938 8.07207C15.3642 8.07207 15.9525 8.49797 16.311 8.80846C16.7703 9.20634 17.5467 10.1319 17.5467 10.2817C17.5467 10.2977 17.5532 10.3173 17.5613 10.3253C17.7051 10.4681 17.6463 11.0411 17.4598 11.3152C17.3872 11.4219 17.3386 11.4715 17.1832 11.5974C16.9624 11.7762 16.4485 11.8507 16.2246 11.7363C16.2067 11.7272 16.157 11.7046 16.1142 11.6862C15.9299 11.6068 15.7581 11.445 15.584 11.1865C15.533 11.1107 15.4857 11.044 15.4789 11.0382C15.4721 11.0324 15.4264 10.9751 15.3773 10.9111C15.0368 10.4666 14.2826 9.89585 13.7707 9.69522C13.7179 9.67451 13.6459 9.64511 13.6107 9.62986C12.7024 9.23642 11.2627 9.23595 10.3893 9.6288C10.3541 9.64464 10.2821 9.6744 10.2293 9.69501C10.1386 9.73044 10.0911 9.75433 9.852 9.88531C9.29189 10.192 8.76715 10.6745 8.37915 11.2395C7.97867 11.8226 7.36699 11.9606 6.81957 11.5915C6.33941 11.2676 6.21936 10.6232 6.54485 10.1171C7.60608 8.46719 9.48325 7.36687 11.5307 7.19457C11.7095 7.17953 12.6498 7.20162 12.7893 7.22418ZM12.4907 11.3156C13.5204 11.4792 14.3856 12.0687 14.9037 12.9597C14.9611 13.0583 15.008 13.1427 15.008 13.1473C15.008 13.1519 15.0308 13.2059 15.0586 13.2674C15.7024 14.6896 15.2 16.4433 13.8965 17.324C13.6923 17.4619 13.3119 17.6696 13.2634 17.6696C13.2526 17.6696 13.2142 17.6842 13.178 17.7022C12.9646 17.808 12.342 17.9238 11.9873 17.9238C11.693 17.9238 11.1211 17.8243 10.9013 17.735C10.8779 17.7254 10.8347 17.7083 10.8053 17.6969C8.86229 16.9445 8.07739 14.6721 9.14224 12.8821C9.21781 12.7551 9.47595 12.425 9.59632 12.3015C10.174 11.7087 10.9418 11.3473 11.7333 11.2956C11.9974 11.2783 12.3077 11.2865 12.4907 11.3156ZM1.50523 17.606C1.51627 17.606 1.52533 17.6483 1.52533 17.7001C1.52533 17.7518 1.53493 17.8001 1.54667 17.8073C1.5584 17.8145 1.56667 17.8508 1.56512 17.888C1.56261 17.9457 1.5608 17.9478 1.55264 17.9026C1.54736 17.8735 1.53429 17.8406 1.52352 17.8295C1.5128 17.8184 1.504 17.7779 1.504 17.7395C1.504 17.701 1.4944 17.6696 1.48267 17.6696C1.47051 17.6696 1.46293 17.6173 1.46507 17.5477C1.46827 17.4421 1.46987 17.4379 1.47696 17.516C1.48144 17.5655 1.49419 17.606 1.50523 17.606ZM22.5186 17.6656C22.5062 17.6697 22.496 17.7038 22.496 17.7412C22.496 17.7787 22.4872 17.8184 22.4765 17.8295C22.4657 17.8406 22.4526 17.8735 22.4474 17.9026C22.4392 17.9478 22.4374 17.9457 22.4349 17.888C22.4333 17.8508 22.4416 17.8145 22.4533 17.8073C22.4651 17.8001 22.4747 17.7518 22.4747 17.7001C22.4747 17.6483 22.4843 17.606 22.496 17.606C22.5077 17.606 22.5191 17.5655 22.5213 17.516C22.5247 17.4371 22.5262 17.4403 22.5332 17.542C22.538 17.6119 22.5322 17.6611 22.5186 17.6656ZM1.67467 18.3674C1.67467 18.3914 1.68427 18.4111 1.696 18.4111C1.70773 18.4111 1.71733 18.3974 1.71733 18.3806C1.71733 18.3638 1.70773 18.3441 1.696 18.3369C1.68427 18.3297 1.67467 18.3435 1.67467 18.3674ZM22.294 18.3537C22.2849 18.3746 22.2834 18.3977 22.2907 18.4049C22.3124 18.4264 22.3298 18.3963 22.3198 18.3545C22.311 18.3175 22.3099 18.3174 22.294 18.3537ZM2.50667 19.6775C2.50667 19.7079 2.84656 20.0297 2.86224 20.0142C2.87077 20.0057 2.80165 19.9228 2.70869 19.83C2.54965 19.6711 2.50667 19.6386 2.50667 19.6775ZM21.2913 19.83C21.1983 19.9228 21.1292 20.0057 21.1378 20.0142C21.1534 20.0297 21.4933 19.7079 21.4933 19.6775C21.4933 19.6386 21.4503 19.6711 21.2913 19.83Z" fill="#474747"/>
</svg>
