<svg width="20" height="20" viewBox="0 0 20 20" fill="none" xmlns="http://www.w3.org/2000/svg">
<g clip-path="url(#clip0_53_217)">
<path fill-rule="evenodd" clip-rule="evenodd" d="M2 3.05176e-05H18C19.1046 3.05176e-05 20 0.895391 20 2.00003V18C20 19.1047 19.1046 20 18 20H2C0.89536 20 0 19.1047 0 18V2.00003C0 0.895391 0.89536 3.05176e-05 2 3.05176e-05Z" fill="#474747"/>
<path d="M12.3848 17.8384C12.6808 17.8384 12.9207 17.6005 12.9207 17.307C12.9207 17.0135 12.6808 16.7756 12.3848 16.7756C12.0888 16.7756 11.8489 17.0135 11.8489 17.307C11.8489 17.6005 12.0888 17.8384 12.3848 17.8384Z" fill="#474747"/>
<path fill-rule="evenodd" clip-rule="evenodd" d="M12.8935 6.49487C13.769 7.12039 14.8416 7.48847 16 7.48847V5.26039C15.7808 5.26048 15.5621 5.23761 15.3476 5.19215V6.94599C14.1893 6.94599 13.1168 6.57791 12.2411 5.95239V10.4992C12.2411 12.7738 10.3963 14.6175 8.12068 14.6175C7.27164 14.6175 6.48244 14.361 5.82684 13.921C6.57508 14.6856 7.61852 15.16 8.77292 15.16C11.0487 15.16 12.8936 13.3162 12.8936 11.0416V6.49487H12.8935ZM13.6983 4.24703C13.2508 3.75847 12.9571 3.12703 12.8935 2.42895V2.1424H12.2752C12.4308 3.02959 12.9616 3.78759 13.6983 4.24703V4.24703ZM7.26612 12.1756C7.01616 11.848 6.88104 11.4472 6.88164 11.0351C6.88164 9.99479 7.72548 9.15135 8.76652 9.15135C8.96051 9.15122 9.15336 9.18098 9.33828 9.23959V6.96175C9.12222 6.93216 8.90416 6.91962 8.68612 6.92423V8.69719C8.50112 8.63858 8.30819 8.60882 8.11412 8.60895C7.07308 8.60895 6.22932 9.45239 6.22932 10.4928C6.22932 11.2284 6.65108 11.8654 7.26612 12.1756V12.1756Z" fill="white"/>
<path fill-rule="evenodd" clip-rule="evenodd" d="M12.2409 5.95239C13.1167 6.57791 14.1892 6.94599 15.3475 6.94599V5.19215C14.7009 5.05455 14.1285 4.71679 13.6981 4.24703C12.9615 3.78759 12.4307 3.02959 12.2751 2.1424H10.6512V11.0415C10.6475 12.079 9.80508 12.919 8.76628 12.919C8.15412 12.919 7.61028 12.6274 7.26588 12.1756C6.65084 11.8654 6.22908 11.2284 6.22908 10.4928C6.22908 9.45239 7.07284 8.60895 8.11388 8.60895C8.31332 8.60895 8.50556 8.63999 8.68588 8.69719V6.92423C6.45028 6.97039 4.65228 8.79615 4.65228 11.0416C4.65228 12.1625 5.10004 13.1786 5.82668 13.921C6.48228 14.361 7.27148 14.6176 8.12052 14.6176C10.3961 14.6176 12.2409 12.7738 12.2409 10.4993V5.95239Z" fill="white"/>
<path fill-rule="evenodd" clip-rule="evenodd" d="M12.3924 18.4C13.0009 18.4 13.4943 17.9107 13.4943 17.3071C13.4943 16.7035 13.0009 16.2141 12.3924 16.2141H12.3773C11.7688 16.2141 11.2755 16.7035 11.2755 17.3071C11.2755 17.9107 11.7688 18.4 12.3773 18.4H12.3924ZM11.849 17.3071C11.849 17.0135 12.089 16.7756 12.385 16.7756C12.6807 16.7756 12.9207 17.0135 12.9207 17.3071C12.9207 17.6007 12.6807 17.8387 12.385 17.8387C12.089 17.8386 11.849 17.6007 11.849 17.3071Z" fill="white"/>
</g>
<defs>
<clipPath id="clip0_53_217">
<rect width="20" height="20" fill="white"/>
</clipPath>
</defs>
</svg>
