<svg width="20" height="22" viewBox="0 0 20 22" fill="none" xmlns="http://www.w3.org/2000/svg">
<path d="M16.0061 6.10352e-05H3.99392C1.78814 6.10352e-05 0 1.89428 0 4.23092V16.9557C0 19.2923 1.78814 21.1866 3.99392 21.1866H16.0061C18.2119 21.1866 20 19.2923 20 16.9557V4.23092C20 1.89428 18.2119 6.10352e-05 16.0061 6.10352e-05Z" fill="#474747"/>
<path d="M13.4453 17.1927H11.3378C9.43888 17.1927 8.02333 16.1584 8.02333 13.6816V9.7214H6.2998V7.57527C8.19872 7.053 8.99143 5.32233 9.08396 3.82428H11.0547V7.22709H13.3527V9.7214H11.0547V13.1666C11.0547 14.2009 11.5463 14.5594 12.3321 14.5594H13.4453V17.1927Z" fill="white"/>
</svg>
