<svg width="20" height="22" viewBox="0 0 20 22" fill="none" xmlns="http://www.w3.org/2000/svg">
<path d="M19.9708 3.05072C19.4547 3.90302 18.8309 4.6465 18.1235 5.25243C18.1235 5.47507 18.1235 5.69771 18.1235 5.93273C18.1292 9.97593 16.8249 13.8528 14.5029 16.6943C12.181 19.5358 9.03567 21.1042 5.77211 21.0478C3.88538 21.0556 2.02281 20.5222 0.330301 19.4893C0.239041 19.44 0.18018 19.3282 0.180527 19.2048V19.0688C0.180527 18.8911 0.296758 18.7472 0.440136 18.7472C2.29475 18.6715 4.0832 17.8753 5.55244 16.4712C3.87376 16.4294 2.36338 15.1981 1.66829 13.3047C1.63318 13.2013 1.64411 13.0827 1.69713 12.9918C1.75016 12.9008 1.83761 12.8507 1.9279 12.8594C2.43809 12.9229 2.95337 12.8642 3.44561 12.6863C1.59249 12.21 0.200074 10.3051 0.000797149 7.97364C-0.00628542 7.86179 0.0341943 7.75346 0.107613 7.68777C0.181031 7.62209 0.276775 7.60855 0.360256 7.65204C0.857554 7.92374 1.39439 8.06684 1.93788 8.07259C0.314106 6.75297 -0.387258 4.24301 0.230452 1.96223C0.294214 1.74061 0.447402 1.57688 0.633723 1.53123C0.820043 1.48557 1.01201 1.56472 1.13908 1.73959C3.33027 4.62714 6.34099 6.34781 9.53645 6.53882C9.4546 6.13441 9.41434 5.71881 9.41663 5.3019C9.44652 3.11581 10.5389 1.1684 12.1825 0.371375C13.826 -0.425654 15.6953 0.0854363 16.9153 1.66537C17.747 1.46921 18.551 1.12333 19.3018 0.638735C19.3568 0.596222 19.4265 0.596222 19.4815 0.638735C19.5158 0.706862 19.5158 0.793253 19.4815 0.86138C19.1178 1.89248 18.5035 2.75729 17.7241 3.33521C18.4066 3.23721 19.0771 3.03787 19.7211 2.74149C19.7754 2.69579 19.8466 2.69579 19.9009 2.74149C19.9463 2.76722 19.9802 2.81643 19.9937 2.87602C20.0072 2.9356 19.9988 2.99951 19.9708 3.05072Z" fill="#474747"/>
</svg>
