<svg width="25" height="22" viewBox="0 0 25 22" fill="none" xmlns="http://www.w3.org/2000/svg">
<path d="M24.4796 3.31008C24.3359 2.66715 24.0552 2.08133 23.6656 1.61144C23.276 1.14155 22.7912 0.804145 22.2599 0.633103C20.3098 0 12.4949 0 12.4949 0C12.4949 0 4.67786 0 2.73184 0.633103C2.20227 0.805593 1.71941 1.14369 1.33166 1.61353C0.9439 2.08336 0.664862 2.66842 0.522505 3.31008C0 5.67051 0 10.5982 0 10.5982C0 10.5982 0 15.526 0.522505 17.8864C0.664862 18.5281 0.9439 19.1131 1.33166 19.583C1.71941 20.0528 2.20227 20.3909 2.73184 20.5634C4.67991 21.1865 12.4949 21.1865 12.4949 21.1865C12.4949 21.1865 20.3119 21.1865 22.2599 20.5534C22.7902 20.3832 23.2744 20.0473 23.6639 19.5793C24.0534 19.1113 24.3347 18.5275 24.4796 17.8864C25 15.526 25 10.5982 25 10.5982C25 10.5982 24.9897 5.67051 24.4796 3.31008Z" fill="#474747"/>
<path d="M9.99689 15.1397V6.05688L16.4912 10.5983L9.99689 15.1397Z" fill="white"/>
</svg>
